<svg xmlns="http://www.w3.org/2000/svg" viewBox="0 0 64 64">
  <!-- Solid blue rounded square -->
  <rect width="64" height="64" rx="13" fill="#1677ff"/>

  <!-- M (top half, x: 6-58, y: 4-32) -->
  <rect x="6"  y="4" width="6" height="28" fill="white"/>
  <rect x="52" y="4" width="6" height="28" fill="white"/>
  <polygon points="6,4 12,4 32,20 26,20"  fill="white"/>
  <polygon points="58,4 52,4 32,20 38,20" fill="white"/>

  <!-- 3 (bottom-left, x: 6-30, y: 36-60) -->
  <rect x="6"  y="36" width="24" height="5" rx="2" fill="white"/>
  <rect x="6"  y="47" width="24" height="5" rx="2" fill="white"/>
  <rect x="6"  y="58" width="24" height="5" rx="2" fill="white"/>
  <rect x="25" y="36" width="5"  height="27" fill="white"/>

  <!-- D (bottom-right, x: 34-58, y: 36-63) -->
  <rect x="34" y="36" width="5"  height="27" fill="white"/>
  <rect x="34" y="36" width="20" height="5" rx="2" fill="white"/>
  <rect x="34" y="58" width="20" height="5" rx="2" fill="white"/>
  <path d="M54 36 Q63 49 54 63" stroke="white" stroke-width="5" fill="none" stroke-linecap="round"/>
</svg>
